<?xml version="1.0" encoding="UTF-8"?>
<!-- Created with Inkscape (http://www.inkscape.org/) -->
<svg width="210mm" height="297mm" version="1.1" viewBox="0 0 210 297" xmlns="http://www.w3.org/2000/svg" xmlns:cc="http://creativecommons.org/ns#" xmlns:dc="http://purl.org/dc/elements/1.1/" xmlns:rdf="http://www.w3.org/1999/02/22-rdf-syntax-ns#">
 <metadata>
  <rdf:RDF>
   <cc:Work rdf:about="">
    <dc:format>image/svg+xml</dc:format>
    <dc:type rdf:resource="http://purl.org/dc/dcmitype/StillImage"/>
    <dc:title/>
   </cc:Work>
  </rdf:RDF>
 </metadata>
 <g>
  <path d="m-158.75 693.88v-158.75h26.458v-26.458h52.917v185.21z" fill="#8da799"/>
  <path d="m-132.29 561.58v26.458h26.458v-26.458z" fill="#ffb700"/>
  <path d="m-132.29 614.5v26.458h26.458v-26.458z" fill="#0fc"/>
  <path d="m-79.375 693.88v-423.33h185.21v423.33z" fill="#c7d4cd"/>
 </g>
 <path d="m-52.917 614.5v26.458h26.458v-26.458z" fill="#333"/>
 <path d="m0 614.5v26.458h26.458v-26.458z" fill="#808080"/>
 <g>
  <path d="m52.917 614.5v26.458h26.458v-26.458z" fill="#ff9000"/>
  <path d="m-52.917 561.58v26.458h26.458v-26.458z" fill="#ffb200"/>
  <path d="m0 561.58v26.458h26.458v-26.458z" fill="#f60"/>
  <path d="m52.917 561.58v26.458h26.458v-26.458z" fill="#82eeff"/>
 </g>
 <path d="m-52.917 508.67v26.458h26.458v-26.458z" fill="#808000"/>
 <path d="m0 508.67v26.458h26.458v-26.458z" fill="#00f7ff"/>
 <path d="m52.917 508.67v26.458h26.458v-26.458z" fill="#ff0"/>
 <path d="m-52.917 455.75v26.458h26.458v-26.458z" fill="#00bebe"/>
 <path d="m0 455.75v26.458h26.458v-26.458z" fill="#0ff"/>
 <g>
  <path d="m52.917 455.75v26.458h26.458v-26.458z" fill="#099"/>
  <path d="m-52.917 402.83v26.458h26.458v-26.458z" fill="#4bb4b4"/>
  <path d="m0 402.83v26.458h26.458v-26.458z" fill="#066"/>
 </g>
 <path d="m52.917 402.83v26.458h26.458v-26.458z" fill="#008080"/>
 <path d="m-52.917 349.92v26.458h26.458v-26.458z" fill="#00dada"/>
 <path d="m0 349.92v26.458h26.458v-26.458z" fill="#008e8e"/>
 <path d="m52.917 349.92v26.458h26.458v-26.458z" fill="#0ff"/>
 <g>
  <path d="m-52.917 297v26.458h26.458v-26.458z" fill="#f90"/>
  <path d="m0 297v26.458h26.458v-26.458z" fill="#d2752d"/>
  <path d="m52.917 297v26.458h26.458v-26.458z" fill="#d2ab2d"/>
  <path d="m26.458 270.54v-105.83h132.29v529.17h-52.917v-423.33z" fill="#a2a799"/>
  <path d="m26.458 191.17v26.458h26.458v-26.458z" fill="#ffa800"/>
  <path d="m79.375 191.17v26.458h26.458v-26.458z" fill="#ffc800"/>
  <path d="m132.29 191.17v26.458h26.458v-26.458z" fill="#ffcf00"/>
  <path d="m26.458 244.08v26.458h26.458v-26.458z" fill="#ee9b3b"/>
  <path d="m79.375 244.08v26.458h26.458v-26.458z" fill="#9effff"/>
  <path d="m132.29 244.08v26.458h26.458v-26.458z" fill="#f9b0ff"/>
 </g>
 <path d="m105.83 297v26.458h26.458v-26.458z" fill="none"/>
 <g>
  <path d="m132.29 297v26.458h26.458v-26.458z" fill="#00c1c1"/>
  <path d="m132.29 349.92v26.458h26.458v-26.458z" fill="#00ffa1"/>
  <path d="m132.29 402.83v26.458h26.458v-26.458z" fill="#00a7a7"/>
 </g>
 <path d="m132.29 455.75v26.458h26.458v-26.458z" fill="#f0f"/>
 <path d="m132.29 508.67v26.458h26.458v-26.458z" fill="#ff9cff"/>
 <path d="m132.29 561.58v26.458h26.458v-26.458z" fill="#ef87dc"/>
 <path d="m132.29 614.5v26.458h26.458v-26.458z" fill="#800080"/>
 <path d="m105.83 349.92h185.21v343.96h-185.21z" fill="#abc0b5"/>
 <path d="m132.29 376.38v26.458h26.458v-26.458z" fill="#00fff7"/>
 <path d="m185.21 376.38v26.458h26.458v-26.458z" fill="#f0f"/>
 <path d="m238.12 376.38v26.458h26.458v-26.458z" fill="#ff0"/>
 <g>
  <path d="m132.29 429.29v26.458h26.458v-26.458z" fill="#f0a2ff"/>
  <path d="m185.21 429.29v26.458h26.458v-26.458z" fill="#ff85ff"/>
  <path d="m238.12 429.29v26.458h26.458v-26.458z" fill="#47ffff"/>
 </g>
 <path d="m132.29 482.21v26.458h26.458v-26.458z" fill="#ff8080"/>
 <path d="m185.21 482.21v26.458h26.458v-26.458z" fill="#ff2d2d"/>
 <path d="m238.12 482.21v26.458h26.458v-26.458z" fill="#f0f"/>
 <path d="m132.29 535.12v26.458h26.458v-26.458z" fill="#ff8080"/>
 <path d="m185.21 535.12v26.458h26.458v-26.458z" fill="#ff03d5"/>
 <path d="m238.12 535.12v26.458h26.458v-26.458z" fill="#f0f"/>
 <path d="m132.29 588.04v26.458h26.458v-26.458z" fill="#ff8080"/>
 <path d="m185.21 588.04v26.458h26.458v-26.458z" fill="#faa"/>
 <path d="m238.12 588.04v26.458h26.458v-26.458z" fill="#f0f"/>
</svg>
