<?xml version="1.0" encoding="UTF-8"?>
<!-- Created with Inkscape (http://www.inkscape.org/) -->
<svg width="1e3mm" height="1e3mm" version="1.1" viewBox="0 0 1e3 1e3" xmlns="http://www.w3.org/2000/svg" xmlns:cc="http://creativecommons.org/ns#" xmlns:dc="http://purl.org/dc/elements/1.1/" xmlns:rdf="http://www.w3.org/1999/02/22-rdf-syntax-ns#">
 <metadata>
  <rdf:RDF>
   <cc:Work rdf:about="">
    <dc:format>image/svg+xml</dc:format>
    <dc:type rdf:resource="http://purl.org/dc/dcmitype/StillImage"/>
    <dc:title/>
   </cc:Work>
  </rdf:RDF>
 </metadata>
 <g transform="translate(0,703)">
  <g>
   <path d="m-8.9899e-7 297v-158.75h26.458v-26.458h52.917v185.21z" fill="#8da799"/>
   <path d="m26.458 164.71v26.458h26.458v-26.458z" fill="#ffb700"/>
   <path d="m26.458 217.62v26.458h26.458v-26.458z" fill="#0fc"/>
   <path d="m79.375 297v-423.33h185.21v423.33z" fill="#c7d4cd"/>
  </g>
  <path d="m105.83 217.62v26.458h26.458v-26.458z" fill="#333"/>
  <path d="m158.75 217.62v26.458h26.458v-26.458z" fill="#808080"/>
  <g>
   <path d="m211.67 217.62v26.458h26.458v-26.458z" fill="#ff9000"/>
   <path d="m105.83 164.71v26.458h26.458v-26.458z" fill="#ffb200"/>
   <path d="m158.75 164.71v26.458h26.458v-26.458z" fill="#f60"/>
   <path d="m211.67 164.71v26.458h26.458v-26.458z" fill="#82eeff"/>
  </g>
  <path d="m105.83 111.79v26.458h26.458v-26.458z" fill="#808000"/>
  <path d="m158.75 111.79v26.458h26.458v-26.458z" fill="#00f7ff"/>
  <path d="m211.67 111.79v26.458h26.458v-26.458z" fill="#ff0"/>
  <path d="m105.83 58.875v26.458h26.458v-26.458z" fill="#00bebe"/>
  <path d="m158.75 58.875v26.458h26.458v-26.458z" fill="#0ff"/>
  <g>
   <path d="m211.67 58.875v26.458h26.458v-26.458z" fill="#099"/>
   <path d="m105.83 5.9583v26.458h26.458v-26.458z" fill="#4bb4b4"/>
   <path d="m158.75 5.9583v26.458h26.458v-26.458z" fill="#066"/>
  </g>
  <path d="m211.67 5.9583v26.458h26.458v-26.458z" fill="#008080"/>
  <path d="m105.83-46.958v26.458h26.458v-26.458z" fill="#00dada"/>
  <path d="m158.75-46.958v26.458h26.458v-26.458z" fill="#008e8e"/>
  <path d="m211.67-46.958v26.458h26.458v-26.458z" fill="#0ff"/>
  <g>
   <path d="m105.83-99.875v26.458h26.458v-26.458z" fill="#f90"/>
   <path d="m158.75-99.875v26.458h26.458v-26.458z" fill="#d2752d"/>
   <path d="m211.67-99.875v26.458h26.458v-26.458z" fill="#d2ab2d"/>
   <path d="m185.21-126.33v-105.83h132.29v529.17h-52.917v-423.33z" fill="#a2a799"/>
   <path d="m185.21-205.71v26.458h26.458v-26.458z" fill="#ffa800"/>
   <path d="m238.12-205.71v26.458h26.458v-26.458z" fill="#ffc800"/>
   <path d="m291.04-205.71v26.458h26.458v-26.458z" fill="#ffcf00"/>
   <path d="m185.21-152.79v26.458h26.458v-26.458z" fill="#ee9b3b"/>
   <path d="m238.12-152.79v26.458h26.458v-26.458z" fill="#9effff"/>
   <path d="m291.04-152.79v26.458h26.458v-26.458z" fill="#f9b0ff"/>
  </g>
  <path d="m264.58-99.875v26.458h26.458v-26.458z" fill="none"/>
  <g>
   <path d="m291.04-99.875v26.458h26.458v-26.458z" fill="#00c1c1"/>
   <path d="m291.04-46.958v26.458h26.458v-26.458z" fill="#00ffa1"/>
   <path d="m291.04 5.9583v26.458h26.458v-26.458z" fill="#00a7a7"/>
  </g>
  <path d="m291.04 58.875v26.458h26.458v-26.458z" fill="#f0f"/>
  <path d="m291.04 111.79v26.458h26.458v-26.458z" fill="#ff9cff"/>
  <path d="m291.04 164.71v26.458h26.458v-26.458z" fill="#ef87dc"/>
  <path d="m291.04 217.62v26.458h26.458v-26.458z" fill="#800080"/>
  <path d="m264.58-46.958h185.21v343.96h-185.21z" fill="#abc0b5"/>
  <path d="m291.04-20.5v26.458h26.458v-26.458z" fill="#00fff7"/>
  <path d="m343.96-20.5v26.458h26.458v-26.458z" fill="#f0f"/>
  <path d="m396.87-20.5v26.458h26.458v-26.458z" fill="#ff0"/>
  <g>
   <path d="m291.04 32.417v26.458h26.458v-26.458z" fill="#f0a2ff"/>
   <path d="m343.96 32.417v26.458h26.458v-26.458z" fill="#ff85ff"/>
   <path d="m396.87 32.417v26.458h26.458v-26.458z" fill="#47ffff"/>
  </g>
  <path d="m291.04 85.333v26.458h26.458v-26.458z" fill="#ff8080"/>
  <path d="m343.96 85.333v26.458h26.458v-26.458z" fill="#ff2d2d"/>
  <path d="m396.87 85.333v26.458h26.458v-26.458z" fill="#f0f"/>
  <path d="m291.04 138.25v26.458h26.458v-26.458z" fill="#ff8080"/>
  <path d="m343.96 138.25v26.458h26.458v-26.458z" fill="#ff03d5"/>
  <path d="m396.87 138.25v26.458h26.458v-26.458z" fill="#f0f"/>
  <path d="m291.04 191.17v26.458h26.458v-26.458z" fill="#ff8080"/>
  <path d="m343.96 191.17v26.458h26.458v-26.458z" fill="#faa"/>
  <path d="m396.87 191.17v26.458h26.458v-26.458z" fill="#f0f"/>
 </g>
</svg>
